<?xml version="1.0" standalone="no"?>
<!DOCTYPE svg PUBLIC "-//W3C//DTD SVG 20010904//EN"
 "http://www.w3.org/TR/2001/REC-SVG-20010904/DTD/svg10.dtd">
<svg version="1.0" xmlns="http://www.w3.org/2000/svg"
 width="192.000000pt" height="192.000000pt" viewBox="0 0 192.000000 192.000000"
 preserveAspectRatio="xMidYMid meet">
<metadata>
Created by potrace 1.11, written by Peter Selinger 2001-2013
</metadata>
<g transform="translate(0.000000,192.000000) scale(0.100000,-0.100000)"
fill="#000000" stroke="none">
<path d="M736 1438 c-47 -81 -78 -157 -71 -178 3 -11 9 -20 13 -20 4 0 22 28
40 63 32 62 106 147 118 135 3 -4 -10 -35 -29 -70 -33 -58 -41 -84 -38 -115 2
-29 28 -9 51 40 26 54 107 147 129 147 7 0 0 -18 -17 -42 -48 -72 -57 -104
-38 -133 18 -27 53 -33 86 -15 14 8 25 7 40 -2 15 -10 26 -10 51 -1 31 12 31
12 14 -7 -10 -11 -24 -20 -30 -20 -17 0 -95 -77 -96 -95 -1 -8 -2 -21 -3 -27
-1 -7 4 -26 11 -41 26 -53 79 -13 135 104 26 54 39 70 76 90 46 24 91 73 79
85 -4 4 -27 -12 -53 -35 -25 -24 -48 -41 -50 -38 -3 3 13 41 35 86 39 77 52
131 31 131 -9 0 -60 -72 -60 -85 0 -14 -73 -116 -90 -125 -11 -6 -21 -8 -21
-5 -6 23 -1 39 33 106 35 68 42 109 18 109 -13 0 -68 -91 -87 -144 -18 -50
-53 -83 -73 -71 -16 10 -5 46 30 104 52 84 34 133 -33 92 -42 -26 -47 -26 -47
-1 0 28 -27 26 -73 -6 -24 -16 -38 -21 -36 -12 7 51 -13 50 -45 -4z m310 -285
c-25 -50 -76 -107 -63 -70 4 10 7 23 7 28 0 9 69 89 76 89 3 0 -7 -21 -20 -47z"/>
<path d="M345 1280 c-185 -28 -245 -270 -94 -379 39 -29 56 -35 132 -46 50 -7
71 -19 96 -54 41 -57 19 -143 -44 -177 -67 -36 -165 6 -179 77 -7 34 -26 39
-26 7 0 -60 92 -135 152 -124 12 3 31 5 40 5 29 2 84 58 96 98 14 46 8 86 -19
129 -23 37 -66 60 -129 67 -60 7 -89 19 -123 51 -75 69 -76 192 -3 267 76 78
188 77 267 -2 42 -42 61 -45 40 -6 -31 57 -129 98 -206 87z"/>
<path d="M1505 1279 c-53 -12 -80 -26 -113 -60 -28 -29 -42 -59 -27 -59 3 0
23 18 44 39 115 115 303 50 319 -108 6 -64 -12 -114 -54 -155 -34 -33 -110
-63 -136 -53 -22 7 -102 -39 -120 -70 -70 -120 36 -262 167 -223 61 18 105 68
105 120 0 33 -16 23 -34 -23 -19 -51 -58 -77 -113 -77 -97 0 -155 103 -103
187 23 39 46 52 102 59 123 15 194 77 213 187 14 74 -38 178 -106 213 -40 20
-108 32 -144 23z"/>
<path d="M323 1185 c-18 -8 -42 -29 -53 -47 -55 -90 11 -197 122 -198 75 -1
155 -61 182 -138 43 -122 -42 -260 -169 -276 -50 -7 -132 17 -167 48 -33 30
-68 97 -68 131 0 14 -4 24 -9 20 -29 -18 34 -141 91 -178 174 -112 394 49 338
248 -25 89 -101 149 -201 159 -66 7 -100 30 -119 84 -13 37 -12 45 3 76 39 83
138 94 199 22 9 -11 17 -16 18 -10 0 13 -36 47 -67 63 -29 15 -61 13 -100 -4z"/>
<path d="M1495 1189 c-31 -18 -65 -51 -65 -63 1 -6 9 -1 18 10 21 25 70 51 92
49 8 -1 23 -3 32 -3 30 -3 75 -51 82 -86 8 -44 -13 -99 -48 -121 -14 -9 -45
-18 -68 -20 -179 -14 -273 -194 -180 -345 70 -113 252 -133 341 -39 43 46 87
159 62 159 -6 0 -11 -11 -11 -25 0 -14 -9 -43 -20 -65 -90 -176 -346 -145
-391 48 -28 119 71 251 189 252 133 1 194 156 91 233 -32 23 -96 32 -124 16z"/>
<path d="M360 1122 c-18 -6 -34 -31 -36 -54 -2 -28 30 -49 82 -54 51 -5 133
-42 170 -76 41 -37 76 -117 82 -183 13 -162 -101 -291 -268 -303 -58 -4 -76
-1 -126 22 -94 43 -134 92 -165 200 -12 41 -18 52 -18 34 -1 -41 34 -128 70
-171 41 -49 132 -95 200 -100 125 -10 251 63 295 170 8 18 15 33 17 33 1 0 1
-45 0 -100 -2 -55 1 -100 6 -100 5 0 9 124 10 276 0 153 2 278 4 280 4 4 53
-48 152 -160 39 -44 82 -93 97 -109 l26 -30 54 59 c29 32 60 65 68 74 8 9 46
50 84 93 38 43 71 75 74 72 3 -3 5 -129 4 -281 -1 -167 2 -273 8 -269 5 3 9
46 8 96 0 49 2 93 6 96 3 4 6 -1 6 -11 0 -24 43 -88 80 -120 113 -95 279 -92
395 7 45 37 85 117 90 179 l5 53 -15 -60 c-29 -114 -91 -186 -188 -219 -179
-60 -360 59 -374 248 -12 151 99 283 252 301 53 6 86 28 82 54 -4 24 -20 47
-37 53 -20 7 -60 -8 -60 -23 0 -8 4 -8 14 1 8 6 25 10 38 8 18 -2 24 -10 26
-35 3 -27 -1 -33 -20 -37 -111 -21 -138 -30 -174 -54 -49 -32 -89 -77 -109
-124 -13 -31 -14 -31 -15 -8 -1 14 -1 62 0 108 1 84 -7 99 -33 62 -7 -10 -38
-46 -68 -78 -30 -32 -85 -93 -123 -135 -37 -42 -72 -77 -77 -77 -4 0 -69 69
-144 153 -75 83 -140 153 -145 155 -5 2 -8 -45 -7 -103 1 -75 -1 -102 -8 -90
-77 130 -122 159 -291 191 -26 5 -36 34 -19 57 14 20 46 22 64 5 11 -11 13
-10 9 1 -5 17 -37 30 -58 23z"/>
<path d="M723 881 c0 -11 4 -18 8 -15 4 2 23 -15 44 -37 20 -22 38 -39 40 -37
2 2 -18 27 -45 56 -36 39 -48 48 -47 33z"/>
<path d="M1150 848 c-19 -23 -56 -64 -82 -92 -25 -28 -60 -67 -76 -86 l-31
-34 -23 25 c-13 14 -39 44 -59 66 -20 22 -43 44 -50 49 -8 4 17 -26 56 -69 38
-42 72 -77 76 -77 3 0 54 54 113 120 60 66 113 117 119 113 5 -3 7 -1 3 5 -3
5 0 13 6 15 9 4 8 6 -2 6 -8 0 -31 -19 -50 -41z"/>
<path d="M715 840 c3 -5 8 -10 11 -10 2 0 4 5 4 10 0 6 -5 10 -11 10 -5 0 -7
-4 -4 -10z"/>
<path d="M1193 815 c0 -8 4 -12 9 -9 5 3 6 10 3 15 -9 13 -12 11 -12 -6z"/>
<path d="M714 809 c-3 -6 -2 -15 3 -20 5 -5 9 -1 10 11 2 22 -2 25 -13 9z"/>
<path d="M1117 735 c-22 -24 -65 -73 -98 -107 l-58 -63 -38 40 c-21 22 -63 69
-94 103 -31 34 -58 62 -61 62 -2 0 -4 -15 -5 -32 -1 -28 0 -29 6 -9 6 23 12
18 95 -72 49 -54 93 -97 97 -97 5 0 28 21 51 47 24 26 60 65 81 87 20 23 37
44 37 48 0 5 7 8 15 8 8 0 15 7 15 15 0 21 0 20 -43 -30z"/>
<path d="M715 760 c-3 -5 -1 -10 4 -10 6 0 11 5 11 10 0 6 -2 10 -4 10 -3 0
-8 -4 -11 -10z"/>
<path d="M1190 740 c0 -5 5 -10 11 -10 5 0 7 5 4 10 -3 6 -8 10 -11 10 -2 0
-4 -4 -4 -10z"/>
<path d="M717 707 c-3 -8 -2 -20 3 -26 5 -9 8 -4 8 13 0 29 -3 32 -11 13z"/>
<path d="M1152 680 c0 -19 2 -27 5 -17 2 9 2 25 0 35 -3 9 -5 1 -5 -18z"/>
<path d="M1193 655 c0 -8 4 -12 9 -9 5 3 6 10 3 15 -9 13 -12 11 -12 -6z"/>
<path d="M716 645 c-3 -8 -1 -15 4 -15 6 0 10 7 10 15 0 8 -2 15 -4 15 -2 0
-6 -7 -10 -15z"/>
<path d="M1151 624 c0 -11 3 -14 6 -6 3 7 2 16 -1 19 -3 4 -6 -2 -5 -13z"/>
<path d="M762 605 c0 -16 2 -22 5 -12 2 9 2 23 0 30 -3 6 -5 -1 -5 -18z"/>
<path d="M1190 619 c0 -5 5 -7 10 -4 6 3 10 8 10 11 0 2 -4 4 -10 4 -5 0 -10
-5 -10 -11z"/>
<path d="M719 598 c-4 -14 -3 -60 1 -63 4 -2 7 11 7 30 0 29 -4 44 -8 33z"/>
<path d="M1152 570 c0 -19 2 -27 5 -17 2 9 2 25 0 35 -3 9 -5 1 -5 -18z"/>
<path d="M760 560 c0 -5 5 -10 11 -10 5 0 7 5 4 10 -3 6 -8 10 -11 10 -2 0 -4
-4 -4 -10z"/>
<path d="M1190 540 c0 -5 5 -10 11 -10 5 0 7 5 4 10 -3 6 -8 10 -11 10 -2 0
-4 -4 -4 -10z"/>
<path d="M1151 514 c0 -11 3 -14 6 -6 3 7 2 16 -1 19 -3 4 -6 -2 -5 -13z"/>
<path d="M715 511 c-3 -5 -1 -12 5 -16 5 -3 10 1 10 9 0 18 -6 21 -15 7z"/>
<path d="M1192 494 c-1 -13 0 -24 2 -24 7 0 14 40 7 44 -4 3 -8 -6 -9 -20z"/>
<path d="M761 494 c0 -11 3 -14 6 -6 3 7 2 16 -1 19 -3 4 -6 -2 -5 -13z"/>
<path d="M715 471 c-3 -5 -2 -12 3 -15 5 -3 9 1 9 9 0 17 -3 19 -12 6z"/>
<path d="M761 454 c0 -11 3 -14 6 -6 3 7 2 16 -1 19 -3 4 -6 -2 -5 -13z"/>
</g>
</svg>
